<svg xmlns="http://www.w3.org/2000/svg" xmlns:xlink="http://www.w3.org/1999/xlink" viewBox="0 0 1000 1000"><defs><style>.cls-1{fill:url(#linear-gradient);}.cls-2{fill:none;stroke-linecap:round;stroke-linejoin:round;stroke-width:60px;}.cls-2,.cls-4{stroke:#2d2e83;}.cls-3{fill:#2d2e83;}.cls-4{fill:#312783;stroke-miterlimit:10;stroke-width:16px;}</style><linearGradient id="linear-gradient" x1="132.69" y1="491.42" x2="867.31" y2="491.42" gradientTransform="translate(991.42 -8.58) rotate(90)" gradientUnits="userSpaceOnUse"><stop offset="0.09" stop-color="#5dff2a"/><stop offset="0.27" stop-color="#59fc28"/><stop offset="0.47" stop-color="#4cf121"/><stop offset="0.67" stop-color="#38e116"/><stop offset="0.87" stop-color="#1bc907"/><stop offset="0.94" stop-color="#0ebf00"/></linearGradient></defs><g id="Layer_7" data-name="Layer 7"><circle class="cls-1" cx="500" cy="491.42" r="367.31"/><path class="cls-2" d="M252.69,730.89c35.74-5.11,100.46-202.91,139.91,0,14.3,73.53,47-44.94,59.24-103.15s19.4-127.66,41.87-135.83,55.64,66.38,71.49,66.38c18.38,0,24.51-32.68,48-133.79,23.14-99.6,55.15-103.14,55.15-103.14"/><path class="cls-3" d="M762.85,500.42a9,9,0,0,1-5.71-2L619.92,385.88,456,419.14a9.13,9.13,0,0,1-1.79.18,9,9,0,0,1-5.85-15.85L664.57,218.71a9,9,0,0,1,14.35,3.88l92.43,265.88a9,9,0,0,1-8.5,11.95Z"/><path class="cls-3" d="M670.42,225.55l92.43,265.87L622.32,376.21,454.21,410.32,670.42,225.55m0-18a18.05,18.05,0,0,0-11.7,4.31L442.51,396.63a18,18,0,0,0,11.69,31.69,18.29,18.29,0,0,0,3.59-.36l159.73-32.41L751.44,505.34a18,18,0,0,0,28.41-19.83L687.42,219.64a18,18,0,0,0-17-12.09Z"/><path class="cls-4" d="M500,100.35c-213.79,0-387.1,173.31-387.1,387.1S286.21,874.55,500,874.55s387.1-173.31,387.1-387.1S713.79,100.35,500,100.35Zm0,738.15c-193.88,0-351-157.17-351-351s157.17-351,351.05-351,351,157.17,351,351S693.88,838.5,500,838.5Z"/></g></svg>