<svg width="73" height="80" viewBox="0 0 73 80" fill="none" xmlns="http://www.w3.org/2000/svg">
<g clip-path="url(#clip0_1315_12157)">
<path d="M28.671 52.7121C19.6585 56.1874 10.1494 58.1997 0.50293 58.6731L0.50293 21.3271C1.93788 21.6001 3.27238 21.873 4.63558 22.189L28.097 35.3463C27.8643 41.1411 28.0561 46.9453 28.671 52.7121V52.7121Z" fill="#6F0DAB"/>
<path d="M36.3774 40.0004V49.3225C34.7559 50.1269 33.1057 50.8882 31.4411 51.592C30.956 46.7244 30.7786 41.8309 30.9102 36.9409L36.3774 40.0004Z" fill="#6F0DAB"/>
<path d="M29.0163 55.6567C30.0518 63.6587 31.8882 71.5361 34.4978 79.1703L2.7998 61.4023C11.7707 60.7692 20.6019 58.8338 29.0163 55.6567V55.6567Z" fill="#6F0DAB"/>
<path d="M36.3777 52.5259V75.6947C34.1916 68.8146 32.6496 61.7459 31.7715 54.5799C33.3212 53.9335 34.8566 53.2584 36.3777 52.5259Z" fill="#6F0DAB"/>
<path d="M48.8476 41.7957C44.9073 44.6472 40.7363 47.1648 36.3779 49.3223V40.0002L41.6155 37.1274C44.0836 38.5734 46.4943 40.1295 48.8476 41.7957Z" fill="#9E00FF"/>
<path d="M70.9458 60.8425L37.655 79.5155C37.1958 78.2515 36.7797 76.9874 36.3779 75.7091V52.5258C41.6267 50.0188 46.6281 47.0227 51.3157 43.5771C55.0584 46.3612 58.6419 49.3536 62.0492 52.5402L70.9458 60.8425Z" fill="#9E00FF"/>
<path d="M51.2863 40.0002C49.0765 38.3914 46.8093 36.8832 44.499 35.4468L69.2088 21.6001L69.0797 21.7725C64.0297 28.6517 58.0401 34.7874 51.2863 40.0002V40.0002Z" fill="#9E00FF"/>
<path d="M72.2512 22.333V58.1421L64.0145 50.4287C60.732 47.3731 57.288 44.4962 53.6973 41.8104C60.4012 36.5313 66.358 30.3656 71.4045 23.4821L72.2512 22.333Z" fill="#9E00FF"/>
<path d="M4.63574 22.2031C12.8119 24.0172 20.7796 26.6694 28.4128 30.1176C28.255 31.8556 28.1546 33.608 28.0972 35.3604L4.63574 22.2031Z" fill="#CE7FFF"/>
<path d="M34.4972 0.830078C31.5869 9.33293 29.6376 18.1354 28.6856 27.0728C20.2654 23.3669 11.4643 20.5973 2.44043 18.8136L34.4972 0.830078Z" fill="#CE7FFF"/>
<path d="M31.1828 31.3818C34.7562 33.1168 38.2382 35.0345 41.6149 37.1274L36.3773 40.0001L30.9102 36.9406C30.9532 35.1021 31.0393 33.2635 31.1828 31.3818Z" fill="#CE7FFF"/>
<path d="M70.9889 19.1869L69.2096 21.6L44.4997 35.4467C40.2936 32.8292 35.9383 30.4599 31.4561 28.351C32.3768 18.8483 34.4587 9.49466 37.655 0.499512L70.9889 19.1869Z" fill="#CE7FFF"/>
<path d="M0.431641 58.6729H0.50346V60.1092L0.431641 58.6729Z" fill="white"/>
</g>
<defs>
<clipPath id="clip0_1315_12157">
<rect width="71.8192" height="79.0011" fill="white" transform="translate(0.431641 0.499512)"/>
</clipPath>
</defs>
</svg>
