<?xml version="1.0" encoding="UTF-8"?>
<svg id="Layer_2" data-name="Layer 2" xmlns="http://www.w3.org/2000/svg" viewBox="0 0 1646.11 173.88">
  <defs>
    <style>
      .cls-1 {
        fill: #122635;
      }

      .cls-2 {
        fill: #2c75ff;
      }
    </style>
  </defs>
  <g id="_Слой_1" data-name="Слой 1">
    <g>
      <path class="cls-2" d="m284.03,76.64c-3.1-2.74-7.07-4.25-11.2-4.25H111.69c-7.21,0-14.11-2.86-19.21-7.94l-.02-.05c-5.1-5.1-7.96-12.02-7.96-19.23,0-1.7,1.4-3.08,3.1-3.08h7.73c5.84.02,11.56-1.75,16.33-5.08,4.8-3.33,8.46-8.06,10.49-13.54L130.98,0h-21.79C103.35,0,97.65,1.8,92.86,5.1c-4.8,3.33-8.48,8.06-10.52,13.52l-4.14,11.01s-.07.05-.07.09c-.38.69-.97,1.28-1.65,1.65-.02,0-.07.02-.09.07-.17.02-.28.02-.43.05-.21.07-.45.09-.66.09s-.43-.02-.64-.09c-.17-.02-.28-.02-.43-.05-.05-.05-.07-.07-.09-.07-.71-.38-1.28-.97-1.68-1.65,0-.05-.02-.07-.05-.09l-4.14-11.01c-3.04-8.21-9.79-14.67-18.43-17.4C47.06.34,44.11,0,41.18,0h-21.57s8.84,23.47,8.84,23.47c1.04,2.74,2.46,5.29,4.23,7.56,1.77,2.29,3.88,4.3,6.26,5.96,4.8,3.33,10.52,5.1,16.35,5.1h8.13c.83,0,1.61.31,2.2.9s.9,1.37.87,2.17v37.96c.09,7.61,1.35,15.15,3.71,22.29h-5.41l-8.65-8.65H22.78v-.95c0-3.45-2.79-6.26-6.26-6.26H6.26c-3.44,0-6.26,2.82-6.26,6.26v10.26c0,3.44,2.82,6.26,6.26,6.26h10.26c3.47,0,6.26-2.81,6.26-6.26v-.97h29.92l8.65,8.65h12.15s0,.02.02.05h82.69c2.31,0,4.18,1.87,4.18,4.18h0c0,2.31-1.87,4.18-4.18,4.18H53.32v-.95c0-3.44-2.82-6.26-6.26-6.26h-10.26c-3.44,0-6.26,2.82-6.26,6.26v10.26c0,3.44,2.82,6.26,6.26,6.26h10.26c3.44,0,6.26-2.82,6.26-6.26v-.95h21.81v-.02h122.16c2.31,0,4.18,1.87,4.18,4.18h0c0,2.31-1.87,4.18-4.18,4.18h-104.81c8.3,7.16,18.13,12.43,28.81,15.39,6.12,1.63,12.48,2.46,18.84,2.43h63.81c12.31.09,24.56-1.91,36.21-5.88l13.78-6.17.09-.05c3.55-1.77,6.86-3.98,9.86-6.58l3.66-3.18c2.81-2.48,5.44-5.15,7.73-8.11l.07-.07,2.43-3.45c1.89-2.72,3.62-5.55,5.03-8.53,0-.02,0-.05.02-.07l2.55-6.17c2.39-6.71,3.76-13.75,4.09-20.89v-.21c-.43-4.11-2.36-7.92-5.44-10.68ZM14.44,103.99h-6.07v-6.1h6.07v6.1Zm30.53,25.41h-6.1v-6.1h6.1v6.1Z"/>
      <path class="cls-1" d="m399.28,15.14v46.73l-2.24-2.57c-6.11-7.02-14.83-10.58-25.95-10.58-23.51,0-41.9,20.4-41.9,46.43s18.39,46.4,41.9,46.4c11.12,0,19.84-3.56,25.95-10.58l2.24-2.57v10.63h24.55V15.14h-24.55Zm-22.77,103.31c-13.63,0-22.77-9.36-22.77-23.3s9.13-23.3,22.77-23.3,22.77,9.36,22.77,23.3-9.16,23.3-22.77,23.3Z"/>
      <path class="cls-1" d="m530.75,95.15c0-26.46-19.18-46.43-44.62-46.43-27.09,0-46.76,19.54-46.76,46.43s20.05,46.4,48.74,46.4c16.28,0,28.87-5.7,37.5-16.94l-19.56-11.24c-4.2,4.1-10.66,6.54-17.55,6.54-11.91,0-19.61-4.53-22.87-13.48l-.64-1.7h64.89c.56-3.05.87-6.26.87-9.57Zm-66.14-8.11l.43-1.63c2.7-9.79,10.12-15.19,20.91-15.19s17.71,5.55,20.38,15.19l.43,1.63h-42.15Z"/>
      <g>
        <polygon class="cls-1" points="628.84 118.43 606.84 50.1 594.51 50.1 572.53 118.43 551.62 50.1 537.57 50.1 565.94 139.88 578.78 139.88 600.68 72.79 622.57 139.88 635.4 139.88 663.77 50.1 649.74 50.1 628.84 118.43"/>
        <path class="cls-1" d="m715.94,48.23c-11.83,0-21.38,4.24-28.04,12.38V16.1h-13.29v123.78h13.29v-47.29c0-19.68,10.22-31.41,27.34-31.41,14.15,0,22.6,8.76,22.6,23.44v55.26h13.46v-55.26c0-22.12-13.89-36.39-35.36-36.39Z"/>
        <path class="cls-1" d="m843.08,63.94c-8.24-10.08-20.33-15.71-34.17-15.71-26.03,0-46.43,20.54-46.43,46.76s20.4,46.76,46.43,46.76c13.84,0,25.93-5.65,34.17-15.71v13.84h13.46V50.1h-13.46v13.84Zm-33.47,64.86c-18.87,0-33.66-14.84-33.66-33.81s14.8-33.81,33.66-33.81,33.47,14.84,33.47,33.81-14.7,33.81-33.47,33.81Z"/>
        <rect class="cls-1" x="875.72" y="11" width="13.29" height="128.88"/>
        <path class="cls-1" d="m948.81,48.23c-26.89,0-46.43,19.66-46.43,46.76s19.82,46.76,47.12,46.76c17.05,0,31.29-7.42,39.1-20.38l1.24-2.06-11.68-6.92-1.2,2.18c-4.86,8.91-15.06,14.22-27.29,14.22-17.33,0-30.41-10.73-33.28-27.01h76.64v-2.39c0-.62.05-1.25.07-1.89.05-.72.1-1.44.1-2.18,0-30.6-22.87-47.1-44.39-47.1Zm0,12.95c13.38,0,27.63,8.52,30.46,27.51h-62.92c2.61-16.57,15.37-27.51,32.47-27.51Z"/>
        <path class="cls-1" d="m1034.22,88.76c-13.03-3.33-20.95-5.94-20.95-14.01,0-9.39,9.05-13.58,18-13.58s16.64,4.26,19.54,11.42l1.03,2.54,11.4-6.51-.89-1.99c-5.1-11.54-16.71-18.41-31.08-18.41-18.12,0-31.29,11.16-31.29,26.53,0,18.22,16.76,22.55,30.24,26.05,13.24,3.42,21.26,6.11,21.26,14.41,0,10.01-10.51,13.58-19.54,13.58-11.44,0-19.92-4.98-22.7-13.31l-.93-2.8-11.61,6.75.72,1.89c4.79,12.79,17.69,20.42,34.53,20.42,19.32,0,32.83-10.92,32.83-26.53,0-18.63-16.93-22.96-30.55-26.46Z"/>
      </g>
      <g>
        <path class="cls-1" d="m1198.93,112.4c-5.46,10.27-16.11,16.4-28.47,16.4-19.2,0-33.66-14.53-33.66-33.81s14.46-33.81,33.66-33.81c12.59,0,23.27,6.23,27.89,16.28l1.13,2.39,11.11-6.51-.91-1.96c-6.58-14.29-21.62-23.15-39.22-23.15-26.86,0-47.12,20.09-47.12,46.76s20.26,46.76,47.12,46.76c17.24,0,32.51-8.76,39.84-22.89l1.05-2.01-11.23-6.68-1.2,2.23Z"/>
        <path class="cls-1" d="m1296.24,63.94c-8.24-10.08-20.33-15.71-34.17-15.71-26.03,0-46.4,20.54-46.4,46.76s20.38,46.76,46.4,46.76c13.84,0,25.93-5.65,34.17-15.71v13.84h13.46V50.1h-13.46v13.84Zm-33.47,64.86c-18.87,0-33.64-14.84-33.64-33.81s14.77-33.81,33.64-33.81,33.47,14.84,33.47,33.81-14.7,33.81-33.47,33.81Z"/>
        <path class="cls-1" d="m1376.33,48.23c-13.96,0-26.03,5.72-34.17,15.95v-14.08h-13.29v123.79h13.29v-48.1c8.14,10.25,20.21,15.97,34.17,15.97,26.03,0,46.43-20.54,46.43-46.76s-20.4-46.76-46.43-46.76Zm-.53,12.95c18.87,0,33.64,14.84,33.64,33.81s-14.77,33.81-33.64,33.81-33.64-14.84-33.64-33.81,14.77-33.81,33.64-33.81Z"/>
        <path class="cls-1" d="m1442.96,16.1c-4.98,0-9.19,4.12-9.19,9.03s4.12,9.19,9.19,9.19,9.19-4.14,9.19-9.19-4.21-9.03-9.19-9.03Z"/>
        <rect class="cls-1" x="1436.3" y="50.1" width="13.29" height="89.79"/>
        <path class="cls-1" d="m1491.75,25.48l-13.46,3.97v20.64h-18.7v13.12h18.7v52.84c0,8.93,2.35,15.28,7.13,19.42,4.21,3.59,10.06,5.36,18.03,5.36,3.45,0,7.3-.34,11.59-.98l2.03-.31v-12.33l-2.61.24c-9.34.81-16.74,1.22-19.99-1.77-1.87-1.7-2.73-4.76-2.73-9.62v-52.84h25.33v-13.12h-25.33v-24.61Z"/>
        <path class="cls-1" d="m1600.19,63.94c-8.24-10.08-20.33-15.71-34.17-15.71-26.03,0-46.43,20.54-46.43,46.76s20.4,46.76,46.43,46.76c13.84,0,25.91-5.65,34.17-15.71v13.84h13.46V50.1h-13.46v13.84Zm-33.5,64.86c-18.87,0-33.64-14.84-33.64-33.81s14.77-33.81,33.64-33.81,33.5,14.84,33.5,33.81-14.73,33.81-33.5,33.81Z"/>
        <rect class="cls-1" x="1632.83" y="11" width="13.29" height="128.88"/>
      </g>
      <circle class="cls-2" cx="1094.06" cy="100.52" r="12.74"/>
    </g>
  </g>
</svg>